<?xml version="1.0" encoding="UTF-8" standalone="no"?>
<svg
   xmlns="http://www.w3.org/2000/svg"
   version="1.1"
   viewBox="0 0 253 67"
   height="67mm"
   width="253mm">
  <g transform="translate(-0.38258857,-0.49276708)" style="fill:#ffffff;fill-opacity:1;fill-rule:nonzero;stroke:none;stroke-width:0.0352777">
    <path d="m 73.750839,35.785538 h 6.30591 l -3.16971,-9.745134 z m 5.86776,-14.364759 8.22748,22.92985 h -4.95688 l -1.5173,-4.686654 h -8.86848 l -1.5173,4.686654 h -5.02461 l 7.65457,-21.4122 c 0.33726,-1.011766 1.07915,-1.51765 2.22568,-1.51765 h 3.77684" />
    <path d="m 100.59264,25.400113 h -5.799661 v 6.035675 h 5.530141 c 2.22532,0 3.4731,-0.809273 3.4731,-3.034594 0,-2.090915 -1.11266,-3.001081 -3.20358,-3.001081 z m 4.51873,7.95796 c 0.9779,0.336905 1.71979,0.876652 2.19181,1.584677 0.40464,0.775406 0.60678,1.921933 0.70803,3.406071 l 0.20249,4.484862 c 0.0339,0.708025 0.30339,1.213909 0.74189,1.516946 h -5.15937 c -0.23601,-0.437798 -0.33726,-0.910166 -0.37077,-1.382183 -0.10125,-0.336904 -0.16863,-1.652413 -0.2025,-3.878088 -0.16862,-2.764718 -0.67451,-3.641725 -3.439581,-3.641725 h -4.99039 v 8.901996 h -4.68736 V 23.882463 c 0,-1.315156 1.04528,-2.461684 2.36044,-2.461684 h 8.699851 c 4.75474,0 7.38505,1.821392 7.38505,6.541911 0,2.900188 -1.24778,4.788254 -3.43959,5.395383" />
    <path d="m 128.24407,32.886411 c 0,-4.519083 -2.02318,-7.756173 -6.3059,-7.756173 -4.28237,0 -6.27204,3.37185 -6.27204,7.756173 0,4.48451 1.9558,7.85636 6.27204,7.85636 0.4385,0 0.877,-0.03351 1.4164,-0.134763 0.60713,-0.168275 1.07915,-0.337254 1.34867,-0.472368 l -2.46168,-2.293057 0.80927,-0.8763 c 0.877,-0.910518 1.8549,-1.045279 2.90018,-0.37112 l 1.31516,0.9779 c 0.70803,-1.247423 0.9779,-2.731207 0.9779,-4.686652 z m -6.3059,11.801827 c -6.98006,0 -10.95904,-4.75474 -10.95904,-11.801827 0,-6.913387 4.08022,-11.768668 10.95904,-11.768668 6.94654,0 10.9929,4.821767 10.9929,11.768668 0,3.337981 -0.87665,6.001806 -2.39395,7.85636 l 2.46134,2.360435 -1.24743,1.247423 c -0.877,0.776111 -1.75366,0.809625 -2.52906,0.06738 l -1.31516,-1.180042 c -1.61854,0.9779 -3.60821,1.450271 -5.96864,1.450271" />
    <path d="m 137.61843,21.420779 h 2.32657 v 14.162617 c 0,3.338335 1.48343,5.024612 4.41749,5.058479 2.93334,0.03352 4.41713,-1.686277 4.41713,-5.058479 V 21.420779 h 4.65384 v 14.702719 c 0,5.63104 -3.30517,8.56474 -9.07097,8.56474 -5.8674,0 -9.10484,-2.765073 -9.10484,-8.56474 V 23.882463 c 0,-1.247775 1.07914,-2.461684 2.36078,-2.461684" />
    <path d="m 155.72652,23.882463 c 0,-1.584678 0.7754,-2.427817 2.36043,-2.461684 h 14.23 v 3.979334 h -11.97081 v 4.923015 h 8.93622 v 1.51765 c 0.0335,1.584676 -0.77576,2.360435 -2.42818,2.360435 h -6.50804 v 5.934427 h 11.97081 v 4.214989 H 155.72652 V 23.882463" />
    <path d="m 184.62501,34.201213 h -5.39538 v 6.00216 h 5.46276 c 2.32657,0 3.74298,-0.674158 3.74298,-2.967215 0,-2.360787 -1.38254,-3.034945 -3.81036,-3.034945 z m -0.20249,-8.8011 h -5.19289 v 4.923015 h 5.26027 c 1.85491,0 3.3722,-0.572913 3.3722,-2.495199 0,-1.922286 -1.31515,-2.427816 -3.43958,-2.427816 z m 0.60713,18.950516 h -10.42 V 23.882463 c 0,-1.315156 1.04563,-2.461684 2.36079,-2.461684 h 8.42998 c 4.31624,0 7.18255,1.719792 7.18255,5.799667 0,2.428523 -0.9779,3.87844 -2.76507,4.755092 2.25954,0.876652 3.57435,2.360435 3.57435,5.395383 0,4.754385 -3.40572,6.979708 -8.3626,6.979708" />
    <path d="m 197.91098,21.420779 h 2.32656 v 14.162617 c 0,3.338335 1.48379,5.024612 4.41749,5.058479 2.93405,0.03352 4.41713,-1.686277 4.41713,-5.058479 V 21.420779 h 4.65384 v 14.702719 c 0,5.63104 -3.30482,8.56474 -9.07097,8.56474 -5.8674,0 -9.10449,-2.765073 -9.10449,-8.56474 V 23.882463 c 0,-1.247775 1.07879,-2.461684 2.36044,-2.461684" />
    <path d="m 229.9118,37.977346 c 0,-1.112663 -0.67416,-1.853848 -2.09056,-2.25919 -1.34867,-0.404283 -2.89983,-0.808918 -4.55225,-1.247423 -4.48486,-1.146527 -6.71053,-3.237087 -6.71053,-6.272035 0.10124,-4.821766 2.96756,-7.182202 8.63247,-7.148335 5.39503,0 8.19432,2.360083 8.46384,7.114468 h -2.63031 c -0.9779,0 -1.65206,-0.471662 -2.09056,-1.348668 -0.77541,-1.314803 -2.15829,-1.9558 -4.14761,-1.9558 -2.42781,0.03351 -3.64172,0.944386 -3.74297,2.698043 0,1.449565 1.44992,2.494847 4.451,3.169709 1.71979,0.404283 3.54083,0.910166 5.46276,1.584679 2.56293,0.876652 3.77684,2.765423 3.64208,5.664552 -0.26988,4.485217 -3.30447,6.710892 -9.10484,6.710892 -6.06954,0 -9.138,-2.529417 -9.27312,-7.519813 h 4.55224 c 0.16899,2.428171 1.7198,3.641725 4.72088,3.641725 3.00143,0 4.45135,-0.944033 4.41748,-2.832804" />
    <path d="m 237.02662,23.882463 c 0,-1.584678 0.77611,-2.427817 2.36079,-2.461684 h 14.23 v 3.979334 H 241.6466 v 4.923015 h 8.93621 v 1.51765 c 0.0339,1.584676 -0.77575,2.360435 -2.42817,2.360435 h -6.50804 v 5.934427 h 11.97081 v 4.214989 H 237.02662 V 23.882463" />
    <path d="M 7.1535986,47.982123 29.656799,61.191888 52.120269,47.984592 c 0.514,-0.302329 0.82621,-0.854075 0.82621,-1.450269 V 21.263088 c 0,-0.600781 -0.33126,-1.156053 -0.85125,-1.45662 L 29.633159,6.8288331 7.1670686,19.808938 c -0.52116,0.300214 -0.78726,0.856191 -0.78726,1.457678 v 25.263826 c 0,0.597254 0.25866,1.149704 0.77379,1.451681 z M 29.629629,67.542946 c -0.51399,0 -1.02799,-0.134763 -1.48731,-0.403931 L 1.8359986,51.716275 C 0.93574857,51.188521 0.38258857,50.223321 0.38258857,49.17945 V 18.595029 c 0,-1.05163 0.56127,-2.022826 1.47228003,-2.548112 L 28.161369,0.88558603 c 0.91017,-0.5242278 2.03059,-0.523875 2.9397,0.00176 L 57.405939,16.048676 c 0.90911,0.525639 1.53776,1.49613 1.53776,2.546349 v 30.58442 c 0,1.042106 -0.62054,2.0066 -1.51906,2.535063 l -26.2703,15.422737 c -0.45967,0.270581 -1.0093,0.405696 -1.52471,0.405696" />
  </g>
  <g style="fill:#f1481d;fill-opacity:1;fill-rule:nonzero;stroke:none;stroke-width:0.0352777">
    <path d="m 45.831659,22.328124 -14.7694,-8.274402 c -0.98531,-0.552097 -2.19145,-0.531636 -3.15771,0.05327 l -14.63855,8.862482 c -0.93871,0.568325 -1.51239,1.586089 -1.51239,2.68358 v 17.462852 c 0,0.576792 0.30578,1.110192 0.80341,1.40194 l 4.9499,2.90195 c 0.2304,0.135112 0.52049,-0.03105 0.52049,-0.298098 v -6.307315 c 0,-0.360891 0.29256,-0.653343 0.65345,-0.653343 h 17.38344 v 0 c 0,-3.464984 -2.80882,-6.2738 -6.2738,-6.2738 h -11.10964 c -0.36089,0 -0.65345,-0.292804 -0.65345,-0.653696 v -5.08494 c 0,-0.451908 0.23604,-0.870656 0.62247,-1.104548 l 10.29713,-6.233935 c 0.39758,-0.240947 0.89429,-0.249414 1.29998,-0.02223 l 10.25455,5.745339 c 0.40781,0.228247 0.66005,0.658988 0.66005,1.126419 v 19.482152 c 0,0.267407 0.29068,0.433565 0.52105,0.298098 l 4.95123,-2.910771 c 0.49672,-0.291745 0.80152,-0.824793 0.80152,-1.400879 V 25.064621 c 0,-1.135239 -0.61313,-2.181578 -1.60373,-2.736497" />
  </g>
</svg>
